{
  "title": "Overboard   (Comedy 1987)   Goldie Hawn, Kurt Russell &amp; Edwa",
  "uid": 9225151,
  "size": 622959498,
  "categoryP": "video",
  "categoryS": "movies",
  "magnet": "?xt=urn:btih:bf3b8bf88b6096842998fe816cf09fccc5df81e4&amp;dn=Overboard+++%28Comedy+1987%29+++Goldie+Hawn%2C+Kurt+Russell+%26amp%3B+Edwa&amp;tr=udp%3A%2F%2Ftracker.openbittorrent.com%3A80&amp;tr=udp%3A%2F%2Fopen.demonii.com%3A1337&amp;tr=udp%3A%2F%2Ftracker.coppersurfer.tk%3A6969&amp;tr=udp%3A%2F%2Fexodus.desync.com%3A6969",
  "seeders": 52,
  "leechers": 2,
  "uploader": "BurtonW",
  "files": 1,
  "time": 1385000374,
  "description": "Excellent quality!\n\nEnglish sub-titles.\n\nThe screenshots for this movie may be viewed under the same title on KickassTorrents.\n\n\n\nStoryline\n\nRich bitch Joanna hires country carpenter Dean to build a closet on her yacht. When the two don't see eye-to-eye, Dean is left unpaid while Joanna sets sail. The following day, Joanna is fished out of the sea, after falling overboard, suffering from amnesia. Dean sees a neat way to regain the money she owes him... he tells her she's his wife; that way Dean gets a free housekeeper and mother for his four kids.\n\n\n\n\nTechnical info:\n\nGeneral:\n\nComplete name                  : Overboard   (Comedy 1987)   Goldie Hawn, Kurt Russell &amp; Edward Herrmann.mp4\nFormat                         : MPEG-4\nFormat profile                 : Base Media / Version 2\nCodec ID                       : mp42\nFile size                      : 594 MiB\nDuration                       : 1h 52mn\nOverall bit rate mode          : Variable\nOverall bit rate               : 740 Kbps\nEncoded date                   : UTC 2013-10-28 09:23:13\nTagged date                    : UTC 2013-10-28 12:58:34\n\nVideo:\n\nID                             : 1\nFormat                         : AVC\nFormat/Info                    : Advanced Video Codec\nFormat profile                 : &lt;a class=&quot;__cf_email__&quot; href=&quot;/cdn-cgi/l/email-protection&quot; data-cfemail=&quot;d895b9b1b69894ecf6e8&quot;&gt;[email&amp;#160;protected]&lt;/a&gt;&lt;script cf-hash='f9e31' type=&quot;text/javascript&quot;&gt;\n/* &lt;![CDATA[ */!function(){try{var t=&quot;currentScript&quot;in document?document.currentScript:function(){for(var t=document.getElementsByTagName(&quot;script&quot;),e=t.length;e--;)if(t[e].getAttribute(&quot;cf-hash&quot;))return t[e]}();if(t&amp;&amp;t.previousSibling){var e,r,n,i,c=t.previousSibling,a=c.getAttribute(&quot;data-cfemail&quot;);if(a){for(e=&quot;&quot;,r=parseInt(a.substr(0,2),16),n=2;a.length-n;n+=2)i=parseInt(a.substr(n,2),16)^r,e+=String.fromCharCode(i);e=document.createTextNode(e),c.parentNode.replaceChild(e,c)}}}catch(u){}}();/* ]]&gt; */&lt;/script&gt;\nFormat settings, CABAC         : Yes\nFormat settings, ReFrames      : 5 frames\nCodec ID                       : avc1\nCodec ID/Info                  : Advanced Video Coding\nDuration                       : 1h 52mn\nBit rate mode                  : Variable\nBit rate                       : 576 Kbps\nWidth                          : 720 pixels\nHeight                         : 400 pixels\nDisplay aspect ratio           : 16:9\nFrame rate mode                : Constant\nFrame rate                     : 25.000 fps\nColor space                    : YUV\nChroma subsampling             : 4:2:0\nBit depth                      : 8 bits\nScan type                      : Progressive\nBits/(Pixel*Frame)             : 0.080\nStream size                    : 462 MiB (78%)\nWriting library                : x264 core 130 r2273 b3065e6\nEncoded date                   : UTC 2013-10-28 09:23:13\nTagged date                    : UTC 2013-10-28 12:58:34\nColor primaries                : BT.709\nTransfer characteristics       : BT.709\nMatrix coefficients            : BT.709\n\nAudio:\n\nID                             : 2\nFormat                         : AAC\nFormat/Info                    : Advanced Audio Codec\nFormat profile                 : LC\nCodec ID                       : 40\nDuration                       : 1h 52mn\nBit rate mode                  : Variable\nBit rate                       : 160 Kbps\nMaximum bit rate               : 308 Kbps\nChannel(s)                     : 2 channels\nChannel positions              : Front: L R\nSampling rate                  : 48.0 KHz\nCompression mode               : Lossy\nDelay relative to video        : 80ms\nStream size                    : 128 MiB (22%)\nLanguage                       : English\nEncoded date                   : UTC 2013-10-28 09:23:13\nTagged date                    : UTC 2013-10-28 12:58:33\n\nText:\n\nID                             : 3\nFormat                         : Timed text\nMuxing mode                    : sbtl\nCodec ID                       : tx3g\nDuration                       : 1h 51mn\nBit rate mode                  : Variable\nBit rate                       : 76 bps\nDelay relative to video        : 80ms\nStream size                    : 61.8 KiB (0%)\nLanguage                       : English\nEncoded date                   : UTC 2013-10-28 09:23:13\nTagged date                    : UTC 2013-10-28 12:58:33\n\n",
  "parsed": {
    "xt": "urn:btih:bf3b8bf88b6096842998fe816cf09fccc5df81e4",
    "dn": "Overboard   (Comedy 1987)   Goldie Hawn, Kurt Russell &amp; Edwa",
    "tr": [
      "udp://exodus.desync.com:6969",
      "udp://open.demonii.com:1337",
      "udp://tracker.coppersurfer.tk:6969",
      "udp://tracker.openbittorrent.com:80"
    ],
    "infoHash": "bf3b8bf88b6096842998fe816cf09fccc5df81e4",
    "infoHashBuffer": {
      "type": "Buffer",
      "data": [
        191,
        59,
        139,
        248,
        139,
        96,
        150,
        132,
        41,
        152,
        254,
        129,
        108,
        240,
        159,
        204,
        197,
        223,
        129,
        228
      ]
    },
    "name": "Overboard   (Comedy 1987)   Goldie Hawn, Kurt Russell &amp; Edwa",
    "announce": [
      "udp://exodus.desync.com:6969",
      "udp://open.demonii.com:1337",
      "udp://tracker.coppersurfer.tk:6969",
      "udp://tracker.openbittorrent.com:80"
    ],
    "urlList": []
  },
  "previous": 21,
  "peers": 18,
  "last_updated": "2016-12-27T11:54:35.888Z"
}